<svg width="85" height="86" viewBox="0 0 85 86" fill="none" xmlns="http://www.w3.org/2000/svg">
<path d="M42.5 60.9166V39.4166" stroke="black" stroke-width="10" stroke-linecap="round"/>
<path d="M42.5 21.5306C45.2141 21.5306 47.4143 23.7567 47.4143 26.5027C47.4143 29.2488 45.2141 31.4749 42.5 31.4749C39.7859 31.4749 37.5857 29.2488 37.5857 26.5027C37.5857 23.7567 39.7859 21.5306 42.5 21.5306Z" fill="black"/>
<path d="M24.7917 11.9605C30.001 8.9116 36.0492 7.16663 42.5 7.16663C62.06 7.16663 77.9167 23.2097 77.9167 43C77.9167 62.79 62.06 78.8333 42.5 78.8333C22.9399 78.8333 7.08337 62.79 7.08337 43C7.08337 36.4733 8.80806 30.3539 11.8215 25.0833" stroke="black" stroke-width="10" stroke-linecap="round"/>
</svg>
