<svg width="220" height="243" viewBox="0 0 220 243" fill="none" xmlns="http://www.w3.org/2000/svg">
<path d="M107.039 175.205H78.3198V127.226H107.039V175.205Z" fill="#7A1E2E" stroke="#7A1E2E"/>
<path d="M107.039 54.7533H78.3198V6.7747H107.039V54.7533Z" fill="#7A1E2E" stroke="#7A1E2E"/>
<path d="M196.026 62.4286V23.5519C201.987 17.85 212.549 23.336 217.084 26.7917V48.1738L213.197 62.4286H196.026Z" fill="#7A1E2E" stroke="#7A1E2E"/>
<path d="M195.702 183.918V145.689C198.812 140.506 210.605 143.53 216.112 145.689V166.424L212.549 183.918H195.702Z" fill="#7A1E2E" stroke="#7A1E2E"/>
<path d="M109.046 178.295V125.066C121.641 121.667 140.117 128.148 147.781 131.813V178.295H109.046Z" fill="#350010" stroke="#7A1E2E"/>
<path d="M172.771 181.294V148.307H194.013V179.795L172.771 181.294Z" fill="#350010" stroke="#212121"/>
<path d="M148.9 58.7869L112.842 56.765L111.157 7.22789L133.624 6.52561L145.867 10.9347L152.944 19.3594L148.9 23.0663V58.7869Z" fill="#350010"/>
<path d="M194.958 27.385H172.574V57.59H194.958V27.385Z" fill="#350010" stroke="black"/>
<path d="M26.9595 239.586H5.65356V25.3206C16.5879 12.4566 24.4135 19.9606 26.9595 25.3206V239.586Z" fill="#8E7A68" fill-opacity="0.8"/>
<path d="M172.771 239.586H151.466V25.3206C162.4 12.4566 170.226 19.9606 172.771 25.3206V239.586Z" fill="#8E7A68" fill-opacity="0.8"/>
<path d="M148.164 57.1669V85.1715H28.5441L28.144 57.1669H148.164Z" fill="#8E7A68"/>
<path d="M28.144 85.1715H28.5441M28.5441 85.1715H148.164V57.1669H28.144L28.5441 85.1715Z" stroke="black"/>
<path d="M148.164 178.295V206.3H28.5441L28.144 178.295H148.164Z" fill="#8E7A68"/>
<path d="M28.144 206.3H28.5441M28.5441 206.3H148.164V178.295H28.144L28.5441 206.3Z" stroke="black"/>
<path d="M59.294 0.355957C54.2081 1.58994 50.0909 4.86474 47.6206 9.75322C47.6206 9.75322 46.1026 11.8136 45.78 13.4077C45.4573 15.0019 45.6346 33.4837 45.6346 33.4837L45.4893 53.5597H38.5143H31.5393L31.394 38.7044C31.2487 22.2354 31.2971 22.4253 27.7128 18.7708C25.1456 16.1604 21.8518 15.1163 16.0393 15.1163C9.59714 15.1163 6.8362 15.9706 3.88151 18.9132C-0.332548 22.9948 0.00651467 14.2146 0.00651467 118.913V211.652L1.21745 212.791C2.67058 214.215 4.31745 214.31 6.01276 212.981L7.27214 212.032V119.435C7.27214 16.8249 7.02995 24.561 10.4206 22.9948C12.455 22.0456 18.8003 21.9981 21.0768 22.8999C24.5159 24.3237 24.2253 15.1638 24.2253 130.351C24.2253 230.399 24.1768 234.291 23.3534 235.003C22.6268 235.667 21.319 235.81 15.8456 235.81C7.36901 235.81 7.27214 235.715 7.27214 229.877C7.27214 226.175 7.17526 225.7 6.0612 224.656C4.70495 223.28 3.88151 223.185 1.99245 224.182C0.151827 225.083 0.00651467 225.606 0.00651467 230.731C0.00651467 235.857 0.829952 238.088 3.54245 240.413C6.20651 242.692 7.9987 243.024 16.7175 242.834C25.6784 242.644 27.3253 242.169 29.7956 238.705L31.2487 236.664L31.394 222.473L31.5393 208.282H87.9206H144.35V221.192C144.35 228.88 144.544 234.908 144.883 235.952C145.561 238.42 148.322 241.268 150.841 242.217C152.585 242.881 154.425 242.976 161.207 242.834L169.441 242.692L171.524 241.268C172.638 240.461 174.091 238.895 174.721 237.756L175.835 235.667V209.374V183.128H183.73H191.577L192.642 184.742C194.338 187.352 196.178 187.874 203.444 187.874C206.98 187.874 210.71 187.637 211.727 187.305C214.197 186.593 217.249 184.03 218.605 181.514C219.622 179.663 219.671 178.999 219.816 164.856C219.913 155.221 219.767 149.431 219.428 148.054C218.605 144.922 216.474 142.217 213.519 140.65C211 139.274 210.806 139.227 203.928 139.227C196.082 139.227 194.435 139.701 192.546 142.691L191.577 144.163L183.682 144.21H175.835L175.932 103.014L176.077 61.8653L183.827 61.7704L191.577 61.628L192.546 63.1468C194.532 66.1843 195.597 66.6114 202.475 66.7538C210.467 66.9437 213.277 66.2792 216.231 63.3366C219.719 59.9194 219.913 58.8753 219.913 42.2165C219.864 26.6019 219.719 25.6526 217.297 22.4728C216.571 21.571 214.972 20.2421 213.713 19.5302C211.582 18.2962 211 18.2013 204.946 18.0114C196.905 17.8216 195.355 18.2013 192.933 21.0489L191.141 23.1847H183.246H175.35L174.527 21.8558C173.122 19.6726 170.846 17.4419 168.811 16.3978C167.261 15.5909 165.76 15.3536 161.642 15.2112L156.363 15.0214L152.633 11.272C148.467 7.14287 147.063 6.66826 144.641 8.51924C142.558 10.1329 142.897 11.889 145.997 15.0214L148.564 17.6792L147.014 19.8149C144.447 23.422 144.35 24.039 144.35 39.3689V53.5597H128.608H112.866V30.5411V7.57002L118.582 7.42764C121.682 7.33272 126.089 7.42763 128.366 7.61748C132.58 7.90224 135.05 7.33271 135.196 5.95634C135.583 2.44424 134.421 0.925488 130.933 0.355957C127.978 -0.118652 61.3284 -0.118652 59.294 0.355957ZM105.6 30.3038V53.5597H92.28H78.9596V30.3038V7.04796H92.28H105.6V30.3038ZM165.421 22.8999C168.86 24.3237 168.569 15.1638 168.569 130.257C168.569 226.175 168.521 234.149 167.746 234.955C167.067 235.715 166.147 235.81 160.335 235.81C155.394 235.81 153.505 235.62 152.778 235.145C151.858 234.481 151.858 232.867 151.858 130.304V26.0798L152.875 24.7509C153.408 24.039 154.425 23.1372 155.055 22.8524C156.653 22.0456 163.386 22.0931 165.421 22.8999ZM209.983 25.6526C212.502 26.7917 212.647 27.646 212.647 42.6911V56.5022L211 58.1159L209.353 59.7296H203.977H198.6V42.4063V25.0831H203.686C206.544 25.0831 209.257 25.3204 209.983 25.6526ZM191.335 42.4063V54.5089H183.585H175.835V42.4063V30.3038H183.585H191.335V42.4063ZM144.35 70.4083V80.1378H87.9206H31.4909V70.4083V60.6788H87.9206H144.35V70.4083ZM144.35 106.716V126.127L142.8 125.226C139.894 123.612 133.742 121.951 128.463 121.429C125.072 121.049 112.236 120.954 91.5534 121.049L59.8268 121.192L56.9206 122.331C52.9487 123.897 48.5409 128.216 46.9425 132.108C45.8284 134.908 45.78 135.145 45.6346 154.746L45.4893 174.585H38.4659H31.4909V130.921V87.2569H87.9206H144.35V106.716ZM105.6 151.567V174.585H92.28H78.9596V151.567V128.548H92.28H105.6V151.567ZM135.099 130.114C137.085 130.779 139.942 132.108 141.396 133.009L144.108 134.623L144.253 154.604L144.35 174.585H128.608H112.866V151.519V128.453L122.214 128.643C130.691 128.833 131.805 128.975 135.099 130.114ZM211.049 147.675L212.405 148.956L212.55 162.815C212.647 172.687 212.502 177.053 212.114 178.002C211.097 180.375 210.08 180.755 204.074 180.755H198.6V163.384V146.014L204.171 146.156C209.499 146.346 209.789 146.393 211.049 147.675ZM191.238 163.527L191.092 175.772H183.585H176.077L175.932 163.527L175.835 151.329H183.585H191.335L191.238 163.527ZM144.35 191.671V201.163H87.9206H31.4909V191.671V182.179H87.9206H144.35V191.671Z" fill="black"/>
<path d="M55.0826 9.35772C57.6541 6.39969 69.1692 6.53385 75.7083 7.09511V53.6392H55.0825C52.6912 37.1128 54.0863 16.6813 55.0826 9.35772Z" fill="#D20040" fill-opacity="0.25"/>
<path d="M55.0826 130.374C57.6541 127.416 69.1692 127.55 75.7083 128.112V174.656H55.0825C52.6912 158.129 54.0863 137.698 55.0826 130.374Z" fill="#350010"/>
</svg>
