<svg width="82" height="82" viewBox="0 0 82 82" fill="none" xmlns="http://www.w3.org/2000/svg">
<path d="M4 18H52.5862M4 37.1799C19.4908 37.1799 28.1759 37.1799 43.6667 37.1799M4 56.1016H43.6667" stroke="#7A1E2E" stroke-width="8" stroke-linecap="round" stroke-linejoin="round"/>
<path d="M4 76H13.9167H43.6667H4Z" stroke="#7A1E2E" stroke-width="8" stroke-linecap="round" stroke-linejoin="round"/>
<path d="M73.6667 9.56665H65.3333C64.5653 9.56665 63.9445 10.1789 63.9445 10.9333V27.3333C63.9445 28.0877 64.5653 28.7 65.3333 28.7H73.6667C74.4347 28.7 75.0556 28.0877 75.0556 27.3333V10.9333C75.0556 10.1789 74.4347 9.56665 73.6667 9.56665Z" fill="#B74900"/>
<path d="M66.7222 27.3333V10.9333C66.7222 10.1789 67.3431 9.56665 68.1111 9.56665H65.3333C64.5653 9.56665 63.9445 10.1789 63.9445 10.9333V27.3333C63.9445 28.0877 64.5653 28.7 65.3333 28.7H68.1111C67.3431 28.7 66.7222 28.0877 66.7222 27.3333Z" fill="#EA5F03"/>
<path d="M72.2778 0H66.7222C64.425 0 62.5555 1.83953 62.5555 4.1V6.83333C62.5555 9.0938 64.425 10.9333 66.7222 10.9333H72.2778C74.575 10.9333 76.4444 9.0938 76.4444 6.83333V4.1C76.4444 1.83953 74.575 0 72.2778 0Z" fill="#7A1E2E"/>
<path d="M65.3333 6.83333V4.1C65.3333 1.83953 67.2028 0 69.5 0H66.7222C64.425 0 62.5555 1.83953 62.5555 4.1V6.83333C62.5555 9.0938 64.425 10.9333 66.7222 10.9333H69.5C67.2028 10.9333 65.3333 9.0938 65.3333 6.83333Z" fill="#A83248"/>
<path d="M72.2778 25.9667H66.7222C61.3625 25.9667 57 30.258 57 35.5333V77.9C57 80.1605 58.8694 82 61.1667 82H77.8333C80.1306 82 82 80.1605 82 77.9V35.5333C82 30.258 77.6375 25.9667 72.2778 25.9667Z" fill="#B74900"/>
<path d="M59.7778 77.9V35.5333C59.7778 30.258 64.1403 25.9667 69.5 25.9667H66.7222C61.3625 25.9667 57 30.258 57 35.5333V77.9C57 80.1605 58.8694 82 61.1667 82H63.9444C61.6472 82 59.7778 80.1605 59.7778 77.9Z" fill="#EA5F03"/>
<path d="M80.6111 45.1001H76.4611C75.9931 41.7763 73.0861 39.2097 69.5833 39.2097C66.0806 39.2097 63.1736 41.7763 62.7056 45.1001H58.3889C57.6208 45.1001 57 45.7123 57 46.4667V62.8667C57 63.6211 57.6208 64.2334 58.3889 64.2334H62.9056C63.7097 67.1813 66.3889 69.2764 69.5833 69.2764C72.7333 69.2764 75.4528 67.1444 76.2611 64.2334H80.6111C81.3792 64.2334 82 63.6211 82 62.8667V46.4667C82 45.7123 81.3792 45.1001 80.6111 45.1001Z" fill="#7A1E2E"/>
<path d="M59.7778 62.8666V46.4666C59.7778 45.7122 60.3986 45.1 61.1667 45.1H58.3889C57.6208 45.1 57 45.7122 57 46.4666V62.8666C57 63.621 57.6208 64.2333 58.3889 64.2333H61.1667C60.3986 64.2333 59.7778 63.621 59.7778 62.8666Z" fill="#A83248"/>
<path d="M69.5 34.1667C72.5639 34.1667 75.0556 31.7149 75.0556 28.7V27.3333C75.0556 26.5789 74.4347 25.9667 73.6667 25.9667H65.3333C64.5653 25.9667 63.9445 26.5789 63.9445 27.3333V28.7C63.9445 31.7149 66.4361 34.1667 69.5 34.1667Z" fill="#7A1E2E"/>
<path d="M66.7222 28.7V27.3333C66.7222 26.5789 67.3431 25.9667 68.1111 25.9667H65.3333C64.5653 25.9667 63.9445 26.5789 63.9445 27.3333V28.7C63.9445 31.7149 66.4361 34.1667 69.5 34.1667C69.982 34.1667 70.4417 34.0874 70.8889 33.9726C68.4986 33.3617 66.7222 31.2393 66.7222 28.7Z" fill="#A83248"/>
<path d="M70.9583 57.2935C71.6893 57.2935 72.2819 56.7104 72.2819 55.991C72.2819 55.2717 71.6893 54.6886 70.9583 54.6886C70.2272 54.6886 69.6346 55.2717 69.6346 55.991C69.6346 56.7104 70.2272 57.2935 70.9583 57.2935Z" fill="#B74900"/>
<path d="M66.7222 54.5382C67.4532 54.5382 68.0458 53.9551 68.0458 53.2358C68.0458 52.5165 67.4532 51.9333 66.7222 51.9333C65.9912 51.9333 65.3986 52.5165 65.3986 53.2358C65.3986 53.9551 65.9912 54.5382 66.7222 54.5382Z" fill="#B74900"/>
<path d="M68.0458 57.2935C68.7768 57.2935 69.3694 56.7104 69.3694 55.991C69.3694 55.2717 68.7768 54.6886 68.0458 54.6886C67.3148 54.6886 66.7222 55.2717 66.7222 55.991C66.7222 56.7104 67.3148 57.2935 68.0458 57.2935Z" fill="#B74900"/>
<path d="M69.5 54.5382C70.231 54.5382 70.8236 53.9551 70.8236 53.2358C70.8236 52.5165 70.231 51.9333 69.5 51.9333C68.769 51.9333 68.1764 52.5165 68.1764 53.2358C68.1764 53.9551 68.769 54.5382 69.5 54.5382Z" fill="#B74900"/>
<path d="M72.2778 54.5382C73.0088 54.5382 73.6014 53.9551 73.6014 53.2358C73.6014 52.5165 73.0088 51.9333 72.2778 51.9333C71.5468 51.9333 70.9542 52.5165 70.9542 53.2358C70.9542 53.9551 71.5468 54.5382 72.2778 54.5382Z" fill="#B74900"/>
<path d="M69.5 60.0473C70.231 60.0473 70.8236 59.4641 70.8236 58.7448C70.8236 58.0255 70.231 57.4424 69.5 57.4424C68.769 57.4424 68.1764 58.0255 68.1764 58.7448C68.1764 59.4641 68.769 60.0473 69.5 60.0473Z" fill="#B74900"/>
<path d="M69.4944 48.7409C69.1777 49.2794 69.2166 49.9012 69.4889 50.4151C70.0764 50.3918 70.643 50.113 70.9597 49.5746C71.2764 49.0361 71.2375 48.4129 70.9653 47.9004C70.3764 47.9236 69.8097 48.2024 69.4944 48.7409Z" fill="#B74900"/>
</svg>
