<svg width="93" height="84" viewBox="0 0 93 84" fill="none" xmlns="http://www.w3.org/2000/svg">
<path d="M4 20H54.2888M4 39.1799C17.7097 39.1799 22.6004 39.1799 36.3101 39.1799M4 58.1016H36.3101" stroke="black" stroke-width="8" stroke-linecap="round" stroke-linejoin="round"/>
<path d="M4 78H13.9167H50.2291H4Z" stroke="black" stroke-width="8" stroke-linecap="round" stroke-linejoin="round"/>
<path d="M73.2759 9.56665H64.9425C64.1745 9.56665 63.5536 10.1789 63.5536 10.9333V27.3333C63.5536 28.0877 64.1745 28.7 64.9425 28.7H73.2759C74.0439 28.7 74.6648 28.0877 74.6648 27.3333V10.9333C74.6648 10.1789 74.0439 9.56665 73.2759 9.56665Z" fill="#525252" fill-opacity="0.2"/>
<path d="M66.3314 27.3333V10.9333C66.3314 10.1789 66.9523 9.56665 67.7203 9.56665H64.9425C64.1745 9.56665 63.5536 10.1789 63.5536 10.9333V27.3333C63.5536 28.0877 64.1745 28.7 64.9425 28.7H67.7203C66.9523 28.7 66.3314 28.0877 66.3314 27.3333Z" fill="#636363" fill-opacity="0.2"/>
<path d="M71.887 0H66.3314C64.0342 0 62.1647 1.83953 62.1647 4.1V6.83334C62.1647 9.0938 64.0342 10.9333 66.3314 10.9333H71.887C74.1842 10.9333 76.0536 9.0938 76.0536 6.83334V4.1C76.0536 1.83953 74.1842 0 71.887 0Z" fill="#2E2E2E" fill-opacity="0.2"/>
<path d="M64.9425 6.83334V4.1C64.9425 1.83953 66.812 0 69.1092 0H66.3314C64.0342 0 62.1647 1.83953 62.1647 4.1V6.83334C62.1647 9.0938 64.0342 10.9333 66.3314 10.9333H69.1092C66.812 10.9333 64.9425 9.0938 64.9425 6.83334Z" fill="#7D7D7D" fill-opacity="0.2"/>
<path d="M71.887 25.9667H66.3314C60.9717 25.9667 56.6092 30.258 56.6092 35.5333V77.9C56.6092 80.1605 58.4786 82 60.7759 82H77.4425C79.7397 82 81.6092 80.1605 81.6092 77.9V35.5333C81.6092 30.258 77.2467 25.9667 71.887 25.9667Z" fill="#525252" fill-opacity="0.2"/>
<path d="M59.387 77.9V35.5333C59.387 30.258 63.7495 25.9667 69.1092 25.9667H66.3314C60.9717 25.9667 56.6092 30.258 56.6092 35.5333V77.9C56.6092 80.1605 58.4786 82 60.7759 82H63.5536C61.2564 82 59.387 80.1605 59.387 77.9Z" fill="#636363" fill-opacity="0.2"/>
<path d="M80.2203 45.1001H76.0703C75.6022 41.7763 72.6953 39.2097 69.1925 39.2097C65.6897 39.2097 62.7828 41.7763 62.3147 45.1001H57.9981C57.23 45.1001 56.6092 45.7123 56.6092 46.4667V62.8667C56.6092 63.6211 57.23 64.2334 57.9981 64.2334H62.5147C63.3189 67.1813 65.9981 69.2764 69.1925 69.2764C72.3425 69.2764 75.062 67.1444 75.8703 64.2334H80.2203C80.9884 64.2334 81.6092 63.6211 81.6092 62.8667V46.4667C81.6092 45.7123 80.9884 45.1001 80.2203 45.1001Z" fill="#2E2E2E" fill-opacity="0.2"/>
<path d="M59.387 62.8666V46.4666C59.387 45.7122 60.0078 45.1 60.7759 45.1H57.9981C57.23 45.1 56.6092 45.7122 56.6092 46.4666V62.8666C56.6092 63.621 57.23 64.2333 57.9981 64.2333H60.7759C60.0078 64.2333 59.387 63.621 59.387 62.8666Z" fill="#7D7D7D" fill-opacity="0.2"/>
<path d="M69.1092 34.1667C72.1731 34.1667 74.6648 31.7149 74.6648 28.7V27.3333C74.6648 26.5789 74.0439 25.9667 73.2759 25.9667H64.9425C64.1745 25.9667 63.5536 26.5789 63.5536 27.3333V28.7C63.5536 31.7149 66.0453 34.1667 69.1092 34.1667Z" fill="#2E2E2E" fill-opacity="0.2"/>
<path d="M66.3314 28.7V27.3333C66.3314 26.5789 66.9523 25.9667 67.7203 25.9667H64.9425C64.1745 25.9667 63.5536 26.5789 63.5536 27.3333V28.7C63.5536 31.7149 66.0453 34.1667 69.1092 34.1667C69.5911 34.1667 70.0509 34.0874 70.4981 33.9726C68.1078 33.3617 66.3314 31.2393 66.3314 28.7Z" fill="#7D7D7D" fill-opacity="0.2"/>
<path d="M70.5675 57.2935C71.2985 57.2935 71.8911 56.7104 71.8911 55.991C71.8911 55.2717 71.2985 54.6886 70.5675 54.6886C69.8365 54.6886 69.2439 55.2717 69.2439 55.991C69.2439 56.7104 69.8365 57.2935 70.5675 57.2935Z" fill="#525252" fill-opacity="0.2"/>
<path d="M66.3314 54.5382C67.0624 54.5382 67.655 53.9551 67.655 53.2358C67.655 52.5165 67.0624 51.9333 66.3314 51.9333C65.6004 51.9333 65.0078 52.5165 65.0078 53.2358C65.0078 53.9551 65.6004 54.5382 66.3314 54.5382Z" fill="#525252" fill-opacity="0.2"/>
<path d="M67.655 57.2935C68.386 57.2935 68.9786 56.7104 68.9786 55.991C68.9786 55.2717 68.386 54.6886 67.655 54.6886C66.924 54.6886 66.3314 55.2717 66.3314 55.991C66.3314 56.7104 66.924 57.2935 67.655 57.2935Z" fill="#525252" fill-opacity="0.2"/>
<path d="M69.1092 54.5382C69.8402 54.5382 70.4328 53.9551 70.4328 53.2358C70.4328 52.5165 69.8402 51.9333 69.1092 51.9333C68.3782 51.9333 67.7856 52.5165 67.7856 53.2358C67.7856 53.9551 68.3782 54.5382 69.1092 54.5382Z" fill="#525252" fill-opacity="0.2"/>
<path d="M71.887 54.5382C72.618 54.5382 73.2106 53.9551 73.2106 53.2358C73.2106 52.5165 72.618 51.9333 71.887 51.9333C71.156 51.9333 70.5634 52.5165 70.5634 53.2358C70.5634 53.9551 71.156 54.5382 71.887 54.5382Z" fill="#525252" fill-opacity="0.2"/>
<path d="M69.1092 60.0473C69.8402 60.0473 70.4328 59.4641 70.4328 58.7448C70.4328 58.0255 69.8402 57.4424 69.1092 57.4424C68.3782 57.4424 67.7856 58.0255 67.7856 58.7448C67.7856 59.4641 68.3782 60.0473 69.1092 60.0473Z" fill="#525252" fill-opacity="0.2"/>
<path d="M69.1037 48.7409C68.787 49.2794 68.8259 49.9012 69.0981 50.4151C69.6856 50.3918 70.2523 50.113 70.5689 49.5746C70.8856 49.0361 70.8467 48.4129 70.5745 47.9004C69.9856 47.9236 69.4189 48.2024 69.1037 48.7409Z" fill="#525252" fill-opacity="0.2"/>
<path d="M69.1094 25.9667L69.1094 69.2764" stroke="black" stroke-width="9" stroke-linecap="round"/>
<path d="M50.1892 47.2805L88.0292 47.2805" stroke="black" stroke-width="9" stroke-linecap="round"/>
</svg>
